<?xml version="1.0" standalone="no"?>
<!DOCTYPE svg PUBLIC "-//W3C//DTD SVG 20010904//EN"
 "http://www.w3.org/TR/2001/REC-SVG-20010904/DTD/svg10.dtd">
<svg version="1.0" xmlns="http://www.w3.org/2000/svg"
 width="512.000000pt" height="512.000000pt" viewBox="0 0 512.000000 512.000000"
 preserveAspectRatio="xMidYMid meet">

<g transform="translate(0.000000,512.000000) scale(0.100000,-0.100000)"
fill="#000000" stroke="none">
<path d="M1179 4027 c-64 -34 -102 -93 -107 -166 -8 -112 -33 -83 602 -719
l581 -582 -577 -578 c-400 -399 -582 -588 -593 -614 -56 -136 32 -286 174
-296 112 -8 83 -32 719 601 l582 581 583 -581 c634 -633 606 -609 717 -601
105 8 180 83 188 188 8 111 32 83 -601 718 l-581 582 581 583 c633 635 609
606 601 718 -10 142 -160 230 -296 174 -26 -11 -215 -193 -614 -593 l-578
-577 -577 577 c-400 400 -589 582 -615 593 -56 23 -136 19 -189 -8z"/>
</g>
</svg>
